<mxfile host="Electron" modified="2023-10-01T15:42:40.048Z" agent="Mozilla/5.0 (Windows NT 10.0; Win64; x64) AppleWebKit/537.36 (KHTML, like Gecko) draw.io/22.0.0 Chrome/114.0.5735.289 Electron/25.8.3 Safari/537.36" etag="Y5mz51DAdbXsGB2ikgfi" version="22.0.0" type="device">
  <diagram name="Страница — 1" id="Zg9HLRnK6rWxeKx_omo8">
    <mxGraphModel dx="777" dy="613" grid="1" gridSize="10" guides="1" tooltips="1" connect="1" arrows="1" fold="1" page="1" pageScale="1" pageWidth="827" pageHeight="1169" math="0" shadow="0">
      <root>
        <mxCell id="0" />
        <mxCell id="1" parent="0" />
        <mxCell id="xeBFjK0Q0adFYoCZOUP5-1" value="user" style="swimlane;fontStyle=1;align=center;verticalAlign=top;childLayout=stackLayout;horizontal=1;startSize=26;horizontalStack=0;resizeParent=1;resizeParentMax=0;resizeLast=0;collapsible=1;marginBottom=0;whiteSpace=wrap;html=1;" vertex="1" parent="1">
          <mxGeometry x="310" y="200" width="160" height="190" as="geometry" />
        </mxCell>
        <mxCell id="xeBFjK0Q0adFYoCZOUP5-2" value="fullName: String&lt;br&gt;login:String&lt;br&gt;password: String&lt;br&gt;age: int&lt;br&gt;userRole: UserRole&lt;br&gt;listTransaction: List&amp;lt;T&amp;gt;" style="text;strokeColor=none;fillColor=none;align=left;verticalAlign=top;spacingLeft=4;spacingRight=4;overflow=hidden;rotatable=0;points=[[0,0.5],[1,0.5]];portConstraint=eastwest;whiteSpace=wrap;html=1;" vertex="1" parent="xeBFjK0Q0adFYoCZOUP5-1">
          <mxGeometry y="26" width="160" height="104" as="geometry" />
        </mxCell>
        <mxCell id="xeBFjK0Q0adFYoCZOUP5-3" value="" style="line;strokeWidth=1;fillColor=none;align=left;verticalAlign=middle;spacingTop=-1;spacingLeft=3;spacingRight=3;rotatable=0;labelPosition=right;points=[];portConstraint=eastwest;strokeColor=inherit;" vertex="1" parent="xeBFjK0Q0adFYoCZOUP5-1">
          <mxGeometry y="130" width="160" height="8" as="geometry" />
        </mxCell>
        <mxCell id="xeBFjK0Q0adFYoCZOUP5-4" value="constructor&lt;br&gt;getter/setter&lt;br&gt;toString();&lt;br&gt;" style="text;strokeColor=none;fillColor=none;align=left;verticalAlign=top;spacingLeft=4;spacingRight=4;overflow=hidden;rotatable=0;points=[[0,0.5],[1,0.5]];portConstraint=eastwest;whiteSpace=wrap;html=1;" vertex="1" parent="xeBFjK0Q0adFYoCZOUP5-1">
          <mxGeometry y="138" width="160" height="52" as="geometry" />
        </mxCell>
        <mxCell id="xeBFjK0Q0adFYoCZOUP5-5" value="userRole" style="swimlane;fontStyle=0;childLayout=stackLayout;horizontal=1;startSize=26;fillColor=none;horizontalStack=0;resizeParent=1;resizeParentMax=0;resizeLast=0;collapsible=1;marginBottom=0;whiteSpace=wrap;html=1;" vertex="1" parent="1">
          <mxGeometry x="530" y="50" width="140" height="78" as="geometry" />
        </mxCell>
        <mxCell id="xeBFjK0Q0adFYoCZOUP5-6" value="USER" style="text;strokeColor=none;fillColor=none;align=left;verticalAlign=top;spacingLeft=4;spacingRight=4;overflow=hidden;rotatable=0;points=[[0,0.5],[1,0.5]];portConstraint=eastwest;whiteSpace=wrap;html=1;" vertex="1" parent="xeBFjK0Q0adFYoCZOUP5-5">
          <mxGeometry y="26" width="140" height="26" as="geometry" />
        </mxCell>
        <mxCell id="xeBFjK0Q0adFYoCZOUP5-7" value="ADMIN" style="text;strokeColor=none;fillColor=none;align=left;verticalAlign=top;spacingLeft=4;spacingRight=4;overflow=hidden;rotatable=0;points=[[0,0.5],[1,0.5]];portConstraint=eastwest;whiteSpace=wrap;html=1;" vertex="1" parent="xeBFjK0Q0adFYoCZOUP5-5">
          <mxGeometry y="52" width="140" height="26" as="geometry" />
        </mxCell>
        <mxCell id="xeBFjK0Q0adFYoCZOUP5-9" value="transaction" style="swimlane;fontStyle=1;align=center;verticalAlign=top;childLayout=stackLayout;horizontal=1;startSize=26;horizontalStack=0;resizeParent=1;resizeParentMax=0;resizeLast=0;collapsible=1;marginBottom=0;whiteSpace=wrap;html=1;" vertex="1" parent="1">
          <mxGeometry x="60" y="20" width="160" height="210" as="geometry" />
        </mxCell>
        <mxCell id="xeBFjK0Q0adFYoCZOUP5-10" value="user: User&lt;br&gt;typeTransaction: Enum&lt;br&gt;dataTransaction: int&lt;br&gt;date: Date&lt;br&gt;numberTransaction: int" style="text;strokeColor=none;fillColor=none;align=left;verticalAlign=top;spacingLeft=4;spacingRight=4;overflow=hidden;rotatable=0;points=[[0,0.5],[1,0.5]];portConstraint=eastwest;whiteSpace=wrap;html=1;" vertex="1" parent="xeBFjK0Q0adFYoCZOUP5-9">
          <mxGeometry y="26" width="160" height="84" as="geometry" />
        </mxCell>
        <mxCell id="xeBFjK0Q0adFYoCZOUP5-11" value="" style="line;strokeWidth=1;fillColor=none;align=left;verticalAlign=middle;spacingTop=-1;spacingLeft=3;spacingRight=3;rotatable=0;labelPosition=right;points=[];portConstraint=eastwest;strokeColor=inherit;" vertex="1" parent="xeBFjK0Q0adFYoCZOUP5-9">
          <mxGeometry y="110" width="160" height="8" as="geometry" />
        </mxCell>
        <mxCell id="xeBFjK0Q0adFYoCZOUP5-12" value="constructor&lt;br&gt;getter/setter&lt;br&gt;toString();" style="text;strokeColor=none;fillColor=none;align=left;verticalAlign=top;spacingLeft=4;spacingRight=4;overflow=hidden;rotatable=0;points=[[0,0.5],[1,0.5]];portConstraint=eastwest;whiteSpace=wrap;html=1;" vertex="1" parent="xeBFjK0Q0adFYoCZOUP5-9">
          <mxGeometry y="118" width="160" height="92" as="geometry" />
        </mxCell>
        <mxCell id="xeBFjK0Q0adFYoCZOUP5-18" style="edgeStyle=orthogonalEdgeStyle;rounded=0;orthogonalLoop=1;jettySize=auto;html=1;exitX=1;exitY=0.5;exitDx=0;exitDy=0;entryX=0.999;entryY=0.31;entryDx=0;entryDy=0;entryPerimeter=0;" edge="1" parent="xeBFjK0Q0adFYoCZOUP5-9" source="xeBFjK0Q0adFYoCZOUP5-10" target="xeBFjK0Q0adFYoCZOUP5-10">
          <mxGeometry relative="1" as="geometry" />
        </mxCell>
        <mxCell id="xeBFjK0Q0adFYoCZOUP5-13" value="typeTrans" style="swimlane;fontStyle=0;childLayout=stackLayout;horizontal=1;startSize=26;fillColor=none;horizontalStack=0;resizeParent=1;resizeParentMax=0;resizeLast=0;collapsible=1;marginBottom=0;whiteSpace=wrap;html=1;" vertex="1" parent="1">
          <mxGeometry x="290" y="10" width="140" height="104" as="geometry" />
        </mxCell>
        <mxCell id="xeBFjK0Q0adFYoCZOUP5-14" value="TRANSFER" style="text;strokeColor=none;fillColor=none;align=left;verticalAlign=top;spacingLeft=4;spacingRight=4;overflow=hidden;rotatable=0;points=[[0,0.5],[1,0.5]];portConstraint=eastwest;whiteSpace=wrap;html=1;" vertex="1" parent="xeBFjK0Q0adFYoCZOUP5-13">
          <mxGeometry y="26" width="140" height="26" as="geometry" />
        </mxCell>
        <mxCell id="xeBFjK0Q0adFYoCZOUP5-15" value="+ field: type" style="text;strokeColor=none;fillColor=none;align=left;verticalAlign=top;spacingLeft=4;spacingRight=4;overflow=hidden;rotatable=0;points=[[0,0.5],[1,0.5]];portConstraint=eastwest;whiteSpace=wrap;html=1;" vertex="1" parent="xeBFjK0Q0adFYoCZOUP5-13">
          <mxGeometry y="52" width="140" height="26" as="geometry" />
        </mxCell>
        <mxCell id="xeBFjK0Q0adFYoCZOUP5-16" value="+ field: type" style="text;strokeColor=none;fillColor=none;align=left;verticalAlign=top;spacingLeft=4;spacingRight=4;overflow=hidden;rotatable=0;points=[[0,0.5],[1,0.5]];portConstraint=eastwest;whiteSpace=wrap;html=1;" vertex="1" parent="xeBFjK0Q0adFYoCZOUP5-13">
          <mxGeometry y="78" width="140" height="26" as="geometry" />
        </mxCell>
        <mxCell id="xeBFjK0Q0adFYoCZOUP5-17" value="" style="endArrow=classic;html=1;rounded=0;entryX=1;entryY=0.5;entryDx=0;entryDy=0;exitX=0;exitY=0.5;exitDx=0;exitDy=0;" edge="1" parent="1" source="xeBFjK0Q0adFYoCZOUP5-14" target="xeBFjK0Q0adFYoCZOUP5-10">
          <mxGeometry width="50" height="50" relative="1" as="geometry">
            <mxPoint x="340" y="240" as="sourcePoint" />
            <mxPoint x="390" y="190" as="targetPoint" />
            <Array as="points" />
          </mxGeometry>
        </mxCell>
        <mxCell id="xeBFjK0Q0adFYoCZOUP5-19" value="" style="endArrow=classic;html=1;rounded=0;entryX=1.016;entryY=0.204;entryDx=0;entryDy=0;entryPerimeter=0;exitX=0.104;exitY=1.154;exitDx=0;exitDy=0;exitPerimeter=0;" edge="1" parent="1" source="xeBFjK0Q0adFYoCZOUP5-7" target="xeBFjK0Q0adFYoCZOUP5-2">
          <mxGeometry width="50" height="50" relative="1" as="geometry">
            <mxPoint x="560" y="200" as="sourcePoint" />
            <mxPoint x="610" y="150" as="targetPoint" />
          </mxGeometry>
        </mxCell>
        <mxCell id="xeBFjK0Q0adFYoCZOUP5-20" value="admin" style="swimlane;fontStyle=1;align=center;verticalAlign=top;childLayout=stackLayout;horizontal=1;startSize=26;horizontalStack=0;resizeParent=1;resizeParentMax=0;resizeLast=0;collapsible=1;marginBottom=0;whiteSpace=wrap;html=1;" vertex="1" parent="1">
          <mxGeometry x="100" y="420" width="160" height="134" as="geometry" />
        </mxCell>
        <mxCell id="xeBFjK0Q0adFYoCZOUP5-21" value="super()&lt;br&gt;listUser: ListUser" style="text;strokeColor=none;fillColor=none;align=left;verticalAlign=top;spacingLeft=4;spacingRight=4;overflow=hidden;rotatable=0;points=[[0,0.5],[1,0.5]];portConstraint=eastwest;whiteSpace=wrap;html=1;" vertex="1" parent="xeBFjK0Q0adFYoCZOUP5-20">
          <mxGeometry y="26" width="160" height="74" as="geometry" />
        </mxCell>
        <mxCell id="xeBFjK0Q0adFYoCZOUP5-22" value="" style="line;strokeWidth=1;fillColor=none;align=left;verticalAlign=middle;spacingTop=-1;spacingLeft=3;spacingRight=3;rotatable=0;labelPosition=right;points=[];portConstraint=eastwest;strokeColor=inherit;" vertex="1" parent="xeBFjK0Q0adFYoCZOUP5-20">
          <mxGeometry y="100" width="160" height="8" as="geometry" />
        </mxCell>
        <mxCell id="xeBFjK0Q0adFYoCZOUP5-23" value="+ method(type): type" style="text;strokeColor=none;fillColor=none;align=left;verticalAlign=top;spacingLeft=4;spacingRight=4;overflow=hidden;rotatable=0;points=[[0,0.5],[1,0.5]];portConstraint=eastwest;whiteSpace=wrap;html=1;" vertex="1" parent="xeBFjK0Q0adFYoCZOUP5-20">
          <mxGeometry y="108" width="160" height="26" as="geometry" />
        </mxCell>
        <mxCell id="xeBFjK0Q0adFYoCZOUP5-24" value="listUser" style="swimlane;fontStyle=0;childLayout=stackLayout;horizontal=1;startSize=26;fillColor=none;horizontalStack=0;resizeParent=1;resizeParentMax=0;resizeLast=0;collapsible=1;marginBottom=0;whiteSpace=wrap;html=1;" vertex="1" parent="1">
          <mxGeometry x="390" y="428" width="140" height="104" as="geometry" />
        </mxCell>
        <mxCell id="xeBFjK0Q0adFYoCZOUP5-25" value="constructor" style="text;strokeColor=none;fillColor=none;align=left;verticalAlign=top;spacingLeft=4;spacingRight=4;overflow=hidden;rotatable=0;points=[[0,0.5],[1,0.5]];portConstraint=eastwest;whiteSpace=wrap;html=1;" vertex="1" parent="xeBFjK0Q0adFYoCZOUP5-24">
          <mxGeometry y="26" width="140" height="26" as="geometry" />
        </mxCell>
        <mxCell id="xeBFjK0Q0adFYoCZOUP5-26" value="insert" style="text;strokeColor=none;fillColor=none;align=left;verticalAlign=top;spacingLeft=4;spacingRight=4;overflow=hidden;rotatable=0;points=[[0,0.5],[1,0.5]];portConstraint=eastwest;whiteSpace=wrap;html=1;" vertex="1" parent="xeBFjK0Q0adFYoCZOUP5-24">
          <mxGeometry y="52" width="140" height="26" as="geometry" />
        </mxCell>
        <mxCell id="xeBFjK0Q0adFYoCZOUP5-27" value="delete&lt;br&gt;" style="text;strokeColor=none;fillColor=none;align=left;verticalAlign=top;spacingLeft=4;spacingRight=4;overflow=hidden;rotatable=0;points=[[0,0.5],[1,0.5]];portConstraint=eastwest;whiteSpace=wrap;html=1;" vertex="1" parent="xeBFjK0Q0adFYoCZOUP5-24">
          <mxGeometry y="78" width="140" height="26" as="geometry" />
        </mxCell>
        <mxCell id="xeBFjK0Q0adFYoCZOUP5-28" value="" style="endArrow=classic;html=1;rounded=0;entryX=0.999;entryY=0.351;entryDx=0;entryDy=0;entryPerimeter=0;exitX=0.047;exitY=0.031;exitDx=0;exitDy=0;exitPerimeter=0;" edge="1" parent="1" source="xeBFjK0Q0adFYoCZOUP5-26" target="xeBFjK0Q0adFYoCZOUP5-21">
          <mxGeometry width="50" height="50" relative="1" as="geometry">
            <mxPoint x="310" y="530" as="sourcePoint" />
            <mxPoint x="360" y="480" as="targetPoint" />
          </mxGeometry>
        </mxCell>
      </root>
    </mxGraphModel>
  </diagram>
</mxfile>
